<svg width="280" height="121" viewBox="0 0 280 121" fill="none" xmlns="http://www.w3.org/2000/svg">
  <defs>
    <linearGradient id="waterOuter" x1="18" y1="16" x2="69" y2="84" gradientUnits="userSpaceOnUse">
      <stop stop-color="#A4DEFF" />
      <stop offset="1" stop-color="#4AABE5" />
    </linearGradient>
    <linearGradient id="waterInner" x1="28" y1="25" x2="62" y2="77" gradientUnits="userSpaceOnUse">
      <stop stop-color="#BDE8FF" />
      <stop offset="1" stop-color="#68BCEB" />
    </linearGradient>
    <linearGradient id="dropShadow" x1="54" y1="20" x2="85" y2="88" gradientUnits="userSpaceOnUse">
      <stop stop-color="#676B71" />
      <stop offset="1" stop-color="#24262A" />
    </linearGradient>
  </defs>

  <!-- Droplet icon -->
  <path
    d="M46 8C34 24 8 43 8 72C8 96 25 113 47 113C70 113 86 96 86 72C86 43 60 24 49 8C48 6 47 6 46 8Z"
    fill="url(#waterOuter)"
    stroke="#E9F6FF"
    stroke-width="4"
  />
  <path
    d="M47 23C39 35 22 50 22 72C22 90 33 102 47 102C62 102 72 90 72 72C72 50 55 35 47 23Z"
    fill="url(#waterInner)"
  />
  <path d="M52 13C67 25 86 45 86 72C86 90 76 104 60 111C84 109 101 93 101 72C101 47 83 28 66 14L52 13Z" fill="url(#dropShadow)" />
  <ellipse cx="30" cy="53" rx="8" ry="13" fill="white" opacity="0.4" />

  <!-- Wordmark -->
  <g font-family="Arial, Helvetica, sans-serif" font-weight="700">
    <text x="91" y="78" font-size="58" fill="#8B8E93" stroke="#FFFFFF" stroke-width="1.2">fix</text>
    <text x="180" y="78" font-size="58" fill="#2B2D31" stroke="#FFFFFF" stroke-width="1.2">it</text>
    <text x="217" y="78" font-size="58" fill="#63AFE7" stroke="#FFFFFF" stroke-width="1.2">now</text>
  </g>

  <!-- Tagline -->
  <text
    x="92"
    y="109"
    font-family="Arial, Helvetica, sans-serif"
    font-size="33"
    font-style="italic"
    font-weight="500"
    fill="#2C2D31"
    stroke="#FFFFFF"
    stroke-width="0.9"
  >
    Plumbing, Drainage &amp; Gasfitting
  </text>
</svg>
